<svg xmlns="http://www.w3.org/2000/svg" width="204.779" height="29.268" viewBox="0 0 204.779 29.268">
  <g id="Logo" transform="translate(-1255.323 -241.864)">
    <path id="Path_274" data-name="Path 274" d="M1317.358,241.864h-2.972a1.138,1.138,0,0,0-1.134,1.135v26.627a1.137,1.137,0,0,0,1.134,1.134h2.972a1.137,1.137,0,0,0,1.134-1.134V243a1.138,1.138,0,0,0-1.134-1.135" transform="translate(-27.799 0)" fill="#0433BF"/>
    <path id="Path_275" data-name="Path 275" d="M1364.642,264.568h-14.3a1.138,1.138,0,0,0-1.135,1.134v3.011a1.139,1.139,0,0,0,1.135,1.135h14.3a1.139,1.139,0,0,0,1.135-1.135V265.7a1.138,1.138,0,0,0-1.135-1.134" transform="translate(-45.055 -10.895)" fill="#0433BF"/>
    <path id="Path_276" data-name="Path 276" d="M1407.566,268.024v-1.632a1.824,1.824,0,0,1,1.824-1.824h12.9a1.824,1.824,0,0,1,1.824,1.824v1.632a1.824,1.824,0,0,1-1.824,1.824h-12.9a1.824,1.824,0,0,1-1.824-1.824Z" transform="translate(-73.059 -10.895)" fill="#0433BF"/>
    <path id="Path_277" data-name="Path 277" d="M1612.7,268.024v-1.632a1.824,1.824,0,0,1,1.824-1.824h12.9a1.824,1.824,0,0,1,1.824,1.824v1.631a1.824,1.824,0,0,1-1.824,1.825h-12.9a1.824,1.824,0,0,1-1.824-1.824Z" transform="translate(-171.5 -10.895)" fill="#0433BF"/>
    <path id="Path_278" data-name="Path 278" d="M1518.026,241.864h-3.051a1.415,1.415,0,0,0-1.337,1.116l-.339,1.866a.914.914,0,0,0,.932,1.116h3.064a1.408,1.408,0,0,0,1.334-1.117l.333-1.864a.919.919,0,0,0-.935-1.117" transform="translate(-123.791 0)" fill="#0433BF"/>
    <path id="Path_279" data-name="Path 279" d="M1280.428,265.521H1262.7a2.161,2.161,0,0,1-1.593-.544,2.129,2.129,0,0,1-.544-1.572V243a1.138,1.138,0,0,0-1.134-1.134h-2.971a1.138,1.138,0,0,0-1.134,1.134v20.407a7.316,7.316,0,0,0,.735,3.435,6.954,6.954,0,0,0,4.222,3.537,8.4,8.4,0,0,0,2.378.383h17.77a1.138,1.138,0,0,0,1.134-1.134v-2.971a1.137,1.137,0,0,0-1.134-1.134" transform="translate(0 0)" fill="#0433BF"/>
    <path id="Path_280" data-name="Path 280" d="M1360.211,241.864h-22.465a2.7,2.7,0,0,0-1.048.2,2.484,2.484,0,0,0-.836.564,2.685,2.685,0,0,0-.756,1.874v25.122a1.138,1.138,0,0,0,1.134,1.134h2.971a1.137,1.137,0,0,0,1.134-1.134V247.1h19.866a1.137,1.137,0,0,0,1.134-1.134V243a1.138,1.138,0,0,0-1.134-1.135" transform="translate(-38.287 0)" fill="#0433BF"/>
    <path id="Path_281" data-name="Path 281" d="M1418.566,241.864H1396.1a2.7,2.7,0,0,0-1.048.2,2.479,2.479,0,0,0-.836.564,2.678,2.678,0,0,0-.756,1.874v18.9a7.319,7.319,0,0,0,.735,3.436,7.058,7.058,0,0,0,1.834,2.277,6.983,6.983,0,0,0,2.388,1.26,8.4,8.4,0,0,0,2.378.383h17.77a1.138,1.138,0,0,0,1.135-1.134v-2.97a1.138,1.138,0,0,0-1.135-1.134h-17.729a2.16,2.16,0,0,1-1.592-.544,2.128,2.128,0,0,1-.544-1.572V247.1h19.865a1.138,1.138,0,0,0,1.135-1.134V243a1.139,1.139,0,0,0-1.135-1.135" transform="translate(-66.291 0)" fill="#0433BF"/>
    <path id="Path_282" data-name="Path 282" d="M1624.834,245.969V243a1.138,1.138,0,0,0-1.134-1.134h-22.466a2.7,2.7,0,0,0-1.048.2,2.48,2.48,0,0,0-.837.564,2.675,2.675,0,0,0-.554.846,2.647,2.647,0,0,0-.2,1.028v18.9a7.318,7.318,0,0,0,.736,3.436,7.053,7.053,0,0,0,1.834,2.277,6.979,6.979,0,0,0,2.388,1.26,8.4,8.4,0,0,0,2.378.383h17.77a1.138,1.138,0,0,0,1.134-1.134v-2.971a1.138,1.138,0,0,0-1.134-1.134h-17.729a2.16,2.16,0,0,1-1.593-.544,2.129,2.129,0,0,1-.544-1.572V247.1H1623.7a1.137,1.137,0,0,0,1.134-1.134" transform="translate(-164.732 0)" fill="#0433BF"/>
    <path id="Path_283" data-name="Path 283" d="M1464.373,255.074a.644.644,0,0,0-1.191-.008l-3.086,4.921c-.331.529-.694.459-.805-.155l-3.062-16.851a1.414,1.414,0,0,0-1.337-1.116h-3.051a.917.917,0,0,0-.933,1.116l3.562,19.781h0l1.115,6.194a2.51,2.51,0,0,0,.887,1.571,2.536,2.536,0,0,0,1.673.6,2.651,2.651,0,0,0,1.279-.322,2.391,2.391,0,0,0,.938-.907l4.355-7.14h-.005l1.579-2.589a2.051,2.051,0,0,0,0-1.938Z" transform="translate(-93.85 0)" fill="#0433BF"/>
    <path id="Path_284" data-name="Path 284" d="M1501.505,255.556h-3.08a1.414,1.414,0,0,0-1.337,1.116l-1.357,7.473c-.112.613-.473.683-.8.153l-5.934-9.51h0l-1.688-2.706a2.716,2.716,0,0,0-.967-.907,2.589,2.589,0,0,0-1.269-.322,2.647,2.647,0,0,0-1.281.322,3.228,3.228,0,0,0-.908.824,2.84,2.84,0,0,0-.445.748,2.124,2.124,0,0,0,.172,1.635l.72,1.188.261.43h0l3.683,6.068,1.179,1.938,3.584,5.887h0l2.626,4.314a2.53,2.53,0,0,0,1.16,1.008,2.692,2.692,0,0,0,1.562.181,2.559,2.559,0,0,0,1.37-.745,2.735,2.735,0,0,0,.726-1.391l.3-1.666h0l2.665-14.922a.918.918,0,0,0-.935-1.116" transform="translate(-108.945 -4.314)" fill="#0433BF"/>
    <path id="Path_285" data-name="Path 285" d="M1562.458,270.019l-1.009-.872-4.842-4.181-3.375-2.916c-.472-.407-.349-.769.274-.8a8.446,8.446,0,0,0,.932-.159h0c.183-.037.365-.08.548-.128a10.033,10.033,0,0,0,1.628-.588,10.459,10.459,0,0,0,2.066-1.259,8.462,8.462,0,0,0,1.743-1.844,9,9,0,0,0,1.2-2.489,10.7,10.7,0,0,0,.443-3.2v-3.345a7.25,7.25,0,0,0-.332-2.076,6.169,6.169,0,0,0-1.088-2.065,6.038,6.038,0,0,0-1.965-1.593,6.317,6.317,0,0,0-2.962-.635h-19.891a2.7,2.7,0,0,0-1.048.2,2.484,2.484,0,0,0-.837.564,2.679,2.679,0,0,0-.756,1.874v25.122a1.137,1.137,0,0,0,1.134,1.134h2.972a1.137,1.137,0,0,0,1.134-1.134V247.1h17.292a3.511,3.511,0,0,1,.353.02.832.832,0,0,1,.363.131.817.817,0,0,1,.282.343,1.617,1.617,0,0,1,.112.675v3.305a4.843,4.843,0,0,1-.323,1.824,3.838,3.838,0,0,1-.918,1.36,4.462,4.462,0,0,1-1.411.9,6.053,6.053,0,0,1-1.8.413h-10.716c-.624,0-.773.36-.332.8l1.563,1.562,4.346,4.346,1.6,1.6,4.77,4.769.811.811a3.158,3.158,0,0,0,1.936.8h5.833c.624,0,.749-.333.276-.741" transform="translate(-133.344 0)" fill="#0433BF"/>
  </g>
</svg>
