<svg xmlns="http://www.w3.org/2000/svg" width="44.325" height="13.501" viewBox="0 0 44.325 13.501">
  <path id="Icon_ionic-ios-arrow-round-forward" data-name="Icon ionic-ios-arrow-round-forward" d="M.784,11.51A.919.919,0,0,0,.777,12.8l4.275,4.282H-35.3a.911.911,0,0,0-.907.914.911.911,0,0,0,.907.914H5.045L.77,23.2A.925.925,0,0,0,.777,24.49a.91.91,0,0,0,1.287-.007l5.794-5.836h0a1.026,1.026,0,0,0,.19-.288.872.872,0,0,0,.07-.352.916.916,0,0,0-.26-.64L2.064,11.531A.9.9,0,0,0,.784,11.51Z" transform="translate(36.207 -11.252)" fill="#fff"/>
</svg>
