<svg xmlns="http://www.w3.org/2000/svg" width="511.447" height="511.448" viewBox="0 0 511.447 511.448">
  <g id="pause" transform="translate(-0.001 0)">
    <path id="Path_3175" data-name="Path 3175" d="M436.508,74.94c-99.913-99.913-261.64-99.928-361.567,0-99.913,99.913-99.928,261.64,0,361.567,99.913,99.913,261.64,99.928,361.567,0C536.42,336.595,536.435,174.868,436.508,74.94ZM255.724,469.39c-117.816,0-213.667-95.851-213.667-213.667S137.908,42.057,255.724,42.057,469.39,137.908,469.39,255.724,373.54,469.39,255.724,469.39Z" fill="#fff"/>
    <path id="Path_3176" data-name="Path 3176" d="M298.39,160.057a21,21,0,0,0-21,21V330.39a21,21,0,0,0,42,0V181.057a21,21,0,0,0-21-21Z" fill="#fff"/>
    <path id="Path_3177" data-name="Path 3177" d="M213.057,160.057a21,21,0,0,0-21,21V330.39a21,21,0,0,0,42,0V181.057a21,21,0,0,0-21-21Z" fill="#fff"/>
  </g>
</svg>
